<svg id="Layer_1" data-name="Layer 1" xmlns="http://www.w3.org/2000/svg" viewBox="0 0 537.95 236.15"><defs><style>.cls-1{fill:#04bdc9;stroke:#0dbdc9;}.cls-1,.cls-2{stroke-miterlimit:10;}.cls-2{font-size:52.53px;fill:#3a405f;stroke:#3a405f;font-family:Fieldwork-GeoThin, Fieldwork;font-weight:200;}.cls-3{letter-spacing:-0.01em;}.cls-4{letter-spacing:0em;}.cls-5{letter-spacing:-0.01em;}.cls-6{letter-spacing:-0.02em;}.cls-7{letter-spacing:0em;}.cls-8{letter-spacing:0em;}.cls-9{letter-spacing:-0.01em;}.cls-10{letter-spacing:-0.02em;}</style></defs><path class="cls-1" d="M137.72,292.47c0-35.09,25.74-59.89,57.46-59.89,14,0,24.5,3.89,32.36,10.29a4.5,4.5,0,0,0,7.38-3.43h0a4.49,4.49,0,0,1,4.51-4.48h14a4.48,4.48,0,0,1,4.5,4.48V344.67a4.49,4.49,0,0,1-4.5,4.48h-14a4.5,4.5,0,0,1-4.51-4.48h0a4.5,4.5,0,0,0-7.38-3.44c-7.86,6.4-18.36,10.3-32.36,10.3C163.46,351.53,137.72,327.56,137.72,292.47ZM198,253.75c-21.49,0-37.24,17.67-37.24,38.72s15.75,37.89,37.24,37.89,36.84-17.85,36.84-38.9S219.35,253.75,198,253.75Z" transform="translate(-137.22 -182.18)"/><path class="cls-1" d="M395.65,310.5l19.44-72.22a4.49,4.49,0,0,1,4.35-3.32h14.85a4.49,4.49,0,0,1,4.33,5.72L408.32,345.9a4.5,4.5,0,0,1-4.33,3.25H379.43a4.5,4.5,0,0,1-4.34-3.28l-17.52-62.49a4.51,4.51,0,0,0-8.68,0l-17.51,62.49a4.51,4.51,0,0,1-4.34,3.28H302.48a4.49,4.49,0,0,1-4.33-3.25L267.84,240.68a4.49,4.49,0,0,1,4.33-5.72H287a4.5,4.5,0,0,1,4.35,3.32l19.43,72.22a4.51,4.51,0,0,0,8.68.08l20.6-71.19a4.5,4.5,0,0,1,4.33-3.24h17.63a4.49,4.49,0,0,1,4.32,3.24L387,310.58A4.5,4.5,0,0,0,395.65,310.5Z" transform="translate(-137.22 -182.18)"/><path class="cls-1" d="M671.69,345.4c-9.69,3.58-20.05,6.13-31.24,6.13-37.65,0-63.44-24.38-63.44-60.07,0-35,25.68-58.88,63.21-58.88a80.8,80.8,0,0,1,30.49,6.14,4.45,4.45,0,0,1,2.61,4.61l-1.39,12a4.49,4.49,0,0,1-6,3.68,73,73,0,0,0-25.66-4.54c-23.82,0-40.21,15.23-40.21,37,0,22.48,16.39,38.18,40.44,38.18a78.62,78.62,0,0,0,26.21-4.9,4.49,4.49,0,0,1,6,3.5l2,12.21A4.5,4.5,0,0,1,671.69,345.4Z" transform="translate(-137.22 -182.18)"/><path class="cls-1" d="M556.65,182.68h-14c-2.49,0-3,1-3,3.47v53.29a4.5,4.5,0,0,1-7.39,3.43c-7.85-6.4-18.36-10.29-32.35-10.29-31.72,0-56,23.79-56,58.88s24.29,60.07,56,60.07c14,0,24.5-3.89,32.35-10.3a4.59,4.59,0,0,1,2.89-1,4.45,4.45,0,0,1,4.5,4.47,4.5,4.5,0,0,0,4.51,4.48h14a4.5,4.5,0,0,0,4.5-4.48V186.15C562.61,183.68,559.13,182.68,556.65,182.68Zm-54,147.68c-21.5,0-35.8-17.85-35.8-38.9s14.3-37.71,35.8-37.71,36.83,16.65,36.83,37.71S524.15,330.36,502.65,330.36Z" transform="translate(-137.22 -182.18)"/><text class="cls-2" transform="translate(0.5 217.62) scale(0.73 1)">a <tspan class="cls-3" x="45.63" y="0">w</tspan><tspan class="cls-4" x="86.67" y="0">eb d</tspan><tspan class="cls-5" x="195.5" y="0">e</tspan><tspan class="cls-6" x="224.79" y="0">v</tspan><tspan x="250.92" y="0">elopme</tspan><tspan class="cls-7" x="437.85" y="0">n</tspan><tspan class="cls-8" x="469.22" y="0">t </tspan><tspan class="cls-9" x="500.92" y="0">c</tspan><tspan x="527.01" y="0">ompa</tspan><tspan class="cls-5" x="674.56" y="0">n</tspan><tspan class="cls-10" x="705.5" y="0">y</tspan></text></svg>